<?xml version="1.0" encoding="UTF-8"?>
<svg xmlns="http://www.w3.org/2000/svg" xmlns:xlink="http://www.w3.org/1999/xlink" width="24px" height="24px" viewBox="0 0 24 24" version="1.1">
<g id="surface1">
<path style=" stroke:none;fill-rule:nonzero;fill:rgb(82 54 203);fill-opacity:1;" d="M 9.667969 1.257812 L 7.84375 1.90625 L 13.039062 4.195312 L 18.214844 6.488281 L 20.195312 5.636719 C 21.273438 5.167969 22.136719 4.683594 22.097656 4.5625 C 22 4.277344 13.253906 0.851562 12.253906 0.710938 C 11.667969 0.628906 11 0.769531 9.667969 1.257812 Z M 9.667969 1.257812 "/>
<path style=" stroke:none;fill-rule:nonzero;fill:rgb(82 54 203);fill-opacity:1;" d="M 3.570312 3.648438 C 1.765625 4.398438 1.429688 4.601562 1.589844 4.722656 C 1.785156 4.90625 11.6875 9.183594 11.882812 9.183594 C 12.195312 9.183594 15.6875 7.640625 15.6875 7.480469 C 15.6875 7.378906 6.078125 3.0625 5.511719 2.898438 C 5.449219 2.898438 4.570312 3.222656 3.570312 3.648438 Z M 3.570312 3.648438 "/>
<path style=" stroke:none;fill-rule:nonzero;fill:rgb(82 54 203);fill-opacity:1;" d="M 17.941406 8.636719 L 12.84375 10.886719 L 12.785156 17.007812 C 12.765625 21.101562 12.804688 23.109375 12.941406 23.109375 C 13.234375 23.109375 21.667969 19.722656 22.15625 19.417969 C 23.078125 18.8125 23.136719 18.261719 23.097656 12.121094 L 23.039062 6.363281 Z M 22.550781 10.785156 C 22.550781 10.925781 22.390625 12.039062 22.214844 13.238281 C 21.960938 14.917969 21.804688 15.488281 21.53125 15.628906 C 21.214844 15.789062 21.117188 15.6875 20.804688 14.960938 C 20.589844 14.472656 20.214844 13.582031 19.941406 12.953125 C 19.667969 12.324219 19.488281 11.738281 19.550781 11.675781 C 19.882812 11.332031 20.195312 11.675781 20.6875 12.871094 C 20.980469 13.582031 21.292969 14.128906 21.371094 14.085938 C 21.449219 14.027344 21.589844 13.378906 21.667969 12.628906 C 21.746094 11.859375 21.882812 11.085938 21.980469 10.886719 C 22.195312 10.480469 22.550781 10.417969 22.550781 10.785156 Z M 19.019531 12.222656 C 19.019531 12.386719 18.648438 12.648438 18.214844 12.832031 C 17.609375 13.074219 17.429688 13.238281 17.53125 13.480469 C 17.589844 13.664062 17.648438 13.945312 17.648438 14.109375 C 17.648438 14.3125 17.765625 14.332031 18.15625 14.1875 C 18.824219 13.925781 19.019531 13.925781 19.019531 14.269531 C 19.019531 14.433594 18.707031 14.675781 18.3125 14.796875 C 17.824219 14.960938 17.648438 15.121094 17.726562 15.34375 C 17.785156 15.507812 17.84375 15.8125 17.84375 16.035156 C 17.84375 16.398438 17.882812 16.398438 18.550781 16.113281 C 19.429688 15.730469 19.609375 15.730469 19.609375 16.09375 C 19.609375 16.378906 17.488281 17.351562 17.3125 17.148438 C 17.214844 17.066406 16.941406 14.960938 16.824219 13.5 C 16.765625 12.75 16.804688 12.710938 17.648438 12.34375 C 18.726562 11.898438 19.019531 11.878906 19.019531 12.222656 Z M 15.863281 14.109375 C 16.429688 14.859375 16.429688 16.5625 15.863281 17.3125 C 15.429688 17.878906 14.53125 18.445312 14.058594 18.445312 C 13.863281 18.445312 13.746094 18.082031 13.648438 17.167969 C 13.570312 16.480469 13.46875 15.488281 13.390625 14.960938 C 13.292969 14.066406 13.332031 13.964844 13.746094 13.804688 C 14.648438 13.417969 15.429688 13.539062 15.863281 14.109375 Z M 15.863281 14.109375 "/>
<path style=" stroke:none;fill-rule:nonzero;fill:rgb(82 54 203);fill-opacity:1;" d="M 14.214844 14.390625 C 14.058594 14.65625 14.332031 17.636719 14.511719 17.636719 C 14.589844 17.636719 14.863281 17.472656 15.117188 17.269531 C 15.921875 16.582031 15.609375 14.1875 14.707031 14.1875 C 14.511719 14.1875 14.273438 14.269531 14.214844 14.390625 Z M 14.214844 14.390625 "/>
<path style=" stroke:none;fill-rule:nonzero;fill:rgb(82 54 203);fill-opacity:1;" d="M 0.785156 12.445312 L 0.785156 18.445312 L 1.3125 19.035156 C 1.726562 19.480469 2.980469 20.066406 6.253906 21.363281 C 8.667969 22.316406 10.707031 23.109375 10.804688 23.109375 C 10.902344 23.109375 10.980469 20.351562 10.980469 16.964844 L 10.960938 10.84375 L 6.214844 8.777344 C 3.609375 7.640625 1.3125 6.648438 1.136719 6.566406 C 0.804688 6.445312 0.785156 6.8125 0.785156 12.445312 Z M 7.410156 14.25 C 7.46875 17.007812 7.46875 17.046875 7.941406 17.230469 C 8.292969 17.371094 8.429688 17.574219 8.429688 17.960938 C 8.429688 18.445312 8.371094 18.488281 7.84375 18.363281 L 7.253906 18.242188 L 7.253906 19.257812 C 7.253906 19.824219 7.214844 20.269531 7.175781 20.269531 C 7.117188 20.269531 6.863281 20.1875 6.589844 20.066406 C 6.136719 19.90625 6.078125 19.761719 6.078125 18.871094 L 6.078125 17.878906 L 4.371094 17.289062 C 1.980469 16.460938 1.980469 16.335938 4.429688 13.519531 C 6.039062 11.675781 6.410156 11.332031 6.84375 11.390625 L 7.351562 11.453125 Z M 7.410156 14.25 "/>
<path style=" stroke:none;fill-rule:nonzero;fill:rgb(82 54 203);fill-opacity:1;" d="M 4.960938 14.738281 L 3.960938 15.953125 L 4.960938 16.277344 C 5.511719 16.460938 5.980469 16.582031 6.019531 16.539062 C 6.058594 16.5 6.078125 15.8125 6.039062 15 L 5.980469 13.539062 Z M 4.960938 14.738281 "/>
</g>
</svg>
