<?xml version="1.0" encoding="UTF-8"?>
<svg xmlns="http://www.w3.org/2000/svg" xmlns:xlink="http://www.w3.org/1999/xlink" width="96px" height="96px" viewBox="0 0 96 96" version="1.1">
<g id="surface1">
<path style=" stroke:none;fill-rule:nonzero;fill:rgb(82 54 203);fill-opacity:1;" d="M 38.667969 5.027344 L 31.371094 7.621094 L 52.15625 16.785156 L 72.863281 25.945312 L 80.785156 22.539062 C 85.097656 20.675781 88.550781 18.730469 88.390625 18.242188 C 88 17.109375 53.019531 3.40625 49.019531 2.835938 C 46.667969 2.511719 44 3.082031 38.667969 5.027344 Z M 38.667969 5.027344 "/>
<path style=" stroke:none;fill-rule:nonzero;fill:rgb(82 54 203);fill-opacity:1;" d="M 14.273438 14.59375 C 7.058594 17.59375 5.726562 18.40625 6.351562 18.890625 C 7.136719 19.621094 46.746094 36.730469 47.53125 36.730469 C 48.785156 36.730469 62.746094 30.566406 62.746094 29.917969 C 62.746094 29.511719 24.3125 12.242188 22.039062 11.59375 C 21.804688 11.59375 18.273438 12.890625 14.273438 14.59375 Z M 14.273438 14.59375 "/>
<path style=" stroke:none;fill-rule:nonzero;fill:rgb(82 54 203);fill-opacity:1;" d="M 71.765625 34.539062 L 51.371094 43.539062 L 51.136719 68.027344 C 51.058594 84.40625 51.214844 92.433594 51.765625 92.433594 C 52.941406 92.433594 86.667969 78.890625 88.628906 77.675781 C 92.3125 75.242188 92.550781 73.054688 92.390625 48.488281 L 92.15625 25.460938 Z M 90.195312 43.136719 C 90.195312 43.703125 89.570312 48.164062 88.863281 52.945312 C 87.84375 59.675781 87.214844 61.945312 86.117188 62.511719 C 84.863281 63.164062 84.46875 62.757812 83.214844 59.835938 C 82.351562 57.890625 80.863281 54.324219 79.765625 51.8125 C 78.667969 49.296875 77.960938 46.945312 78.195312 46.703125 C 79.53125 45.324219 80.785156 46.703125 82.746094 51.488281 C 83.921875 54.324219 85.175781 56.511719 85.488281 56.351562 C 85.804688 56.109375 86.351562 53.511719 86.667969 50.511719 C 86.980469 47.433594 87.53125 44.351562 87.921875 43.539062 C 88.785156 41.917969 90.195312 41.675781 90.195312 43.136719 Z M 76.078125 48.890625 C 76.078125 49.539062 74.589844 50.59375 72.863281 51.324219 C 70.429688 52.296875 69.726562 52.945312 70.117188 53.917969 C 70.351562 54.648438 70.589844 55.785156 70.589844 56.433594 C 70.589844 57.242188 71.058594 57.324219 72.628906 56.757812 C 75.292969 55.703125 76.078125 55.703125 76.078125 57.082031 C 76.078125 57.730469 74.824219 58.703125 73.253906 59.1875 C 71.292969 59.835938 70.589844 60.488281 70.902344 61.378906 C 71.136719 62.027344 71.371094 63.242188 71.371094 64.136719 C 71.371094 65.59375 71.53125 65.59375 74.195312 64.460938 C 77.726562 62.917969 78.429688 62.917969 78.429688 64.378906 C 78.429688 65.511719 69.960938 69.40625 69.253906 68.59375 C 68.863281 68.269531 67.765625 59.835938 67.292969 54 C 67.058594 51 67.214844 50.835938 70.589844 49.378906 C 74.902344 47.59375 76.078125 47.511719 76.078125 48.890625 Z M 63.449219 56.433594 C 65.726562 59.433594 65.726562 66.242188 63.449219 69.242188 C 61.726562 71.511719 58.117188 73.785156 56.234375 73.785156 C 55.449219 73.785156 54.980469 72.324219 54.589844 68.675781 C 54.273438 65.917969 53.882812 61.945312 53.570312 59.835938 C 53.175781 56.269531 53.332031 55.863281 54.980469 55.214844 C 58.589844 53.675781 61.726562 54.164062 63.449219 56.433594 Z M 63.449219 56.433594 "/>
<path style=" stroke:none;fill-rule:nonzero;fill:rgb(82 54 203);fill-opacity:1;" d="M 56.863281 57.566406 C 56.234375 58.621094 57.332031 70.539062 58.039062 70.539062 C 58.351562 70.539062 59.449219 69.890625 60.46875 69.082031 C 63.6875 66.324219 62.429688 56.757812 58.824219 56.757812 C 58.039062 56.757812 57.097656 57.082031 56.863281 57.566406 Z M 56.863281 57.566406 "/>
<path style=" stroke:none;fill-rule:nonzero;fill:rgb(82 54 203);fill-opacity:1;" d="M 3.136719 49.785156 L 3.136719 73.785156 L 5.253906 76.136719 C 6.902344 77.917969 11.921875 80.269531 25.019531 85.460938 C 34.667969 89.269531 42.824219 92.433594 43.214844 92.433594 C 43.609375 92.433594 43.921875 81.40625 43.921875 67.863281 L 43.84375 43.378906 L 24.863281 35.109375 C 14.429688 30.566406 5.253906 26.59375 4.550781 26.269531 C 3.214844 25.785156 3.136719 27.242188 3.136719 49.785156 Z M 29.648438 57 C 29.882812 68.027344 29.882812 68.1875 31.765625 68.917969 C 33.175781 69.488281 33.726562 70.296875 33.726562 71.835938 C 33.726562 73.785156 33.488281 73.945312 31.371094 73.460938 L 29.019531 72.972656 L 29.019531 77.027344 C 29.019531 79.296875 28.863281 81.082031 28.707031 81.082031 C 28.46875 81.082031 27.449219 80.757812 26.351562 80.269531 C 24.550781 79.621094 24.3125 79.054688 24.3125 75.488281 L 24.3125 71.511719 L 17.488281 69.164062 C 7.921875 65.835938 7.921875 65.351562 17.726562 54.082031 C 24.15625 46.703125 25.648438 45.324219 27.371094 45.566406 L 29.410156 45.8125 Z M 29.648438 57 "/>
<path style=" stroke:none;fill-rule:nonzero;fill:rgb(82 54 203);fill-opacity:1;" d="M 19.84375 58.945312 L 15.84375 63.8125 L 19.84375 65.109375 C 22.039062 65.835938 23.921875 66.324219 24.078125 66.164062 C 24.234375 66 24.3125 63.242188 24.15625 60 L 23.921875 54.164062 Z M 19.84375 58.945312 "/>
</g>
</svg>
