<?xml version="1.0" standalone="no"?>
<!DOCTYPE svg PUBLIC "-//W3C//DTD SVG 20010904//EN"
 "http://www.w3.org/TR/2001/REC-SVG-20010904/DTD/svg10.dtd">
<svg version="1" xmlns="http://www.w3.org/2000/svg"
 width="122pt" height="118pt" viewBox="0 0 122 118"
 preserveAspectRatio="xMidYMid meet">

<g transform="matrix(0.1,0,0,-0.1,0,118)"
fill="#5236CB" stroke="none">
<path d="M 493 1118 l -93 -32 l 265 -113 l 264 -113 l 101 42 c 55 23 99 47 97 53 c -5 14 -451 183 -502 190 c -30 4 -64 -3 -132 -27 z"/>
<path d="M 182 1000 c -92 -37 -109 -47 -101 -53 c 10 -9 515 -220 525 -220 c 16 0 194 76 194 84 c 0 5 -490 218 -519 226 c -3 0 -48 -16 -99 -37 z"/>
<path d="M 915 754 l -260 -111 l -3 -302 c -1 -202 1 -301 8 -301 c 15 0 445 167 470 182 c 47 30 50 57 48 360 l -3 284 l -260 -112 z m 235 -106 c 0 -7 -8 -62 -17 -121 c -13 -83 -21 -111 -35 -118 c -16 -8 -21 -3 -37 33 c -11 24 -30 68 -44 99 c -14 31 -23 60 -20 63 c 17 17 33 0 58 -59 c 15 -35 31 -62 35 -60 c 4 3 11 35 15 72 c 4 38 11 76 16 86 c 11 20 29 23 29 5 z m -180 -71 c 0 -8 -19 -21 -41 -30 c -31 -12 -40 -20 -35 -32 c 3 -9 6 -23 6 -31 c 0 -10 6 -11 26 -4 c 34 13 44 13 44 -4 c 0 -8 -16 -20 -36 -26 c -25 -8 -34 -16 -30 -27 c 3 -8 6 -23 6 -34 c 0 -18 2 -18 36 -4 c 45 19 54 19 54 1 c 0 -14 -108 -62 -117 -52 c -5 4 -19 108 -25 180 c -3 37 -1 39 42 57 c 55 22 70 23 70 6 z m -161 -93 c 29 -37 29 -121 0 -158 c -22 -28 -68 -56 -92 -56 c -10 0 -16 18 -21 63 c -4 34 -9 83 -13 109 c -5 44 -3 49 18 57 c 46 19 86 13 108 -15 z"/>
<path d="M 725 470 c -8 -13 6 -160 15 -160 c 4 0 18 8 31 18 c 41 34 25 152 -21 152 c -10 0 -22 -4 -25 -10 z"/>
<path d="M 40 566 l 0 -296 l 27 -29 c 21 -22 85 -51 252 -115 c 123 -47 227 -86 232 -86 c 5 0 9 136 9 303 l -1 302 l -242 102 c -133 56 -250 105 -259 109 c -17 6 -18 -12 -18 -290 z m 338 -89 c 3 -136 3 -138 27 -147 c 18 -7 25 -17 25 -36 c 0 -24 -3 -26 -30 -20 l -30 6 l 0 -50 c 0 -28 -2 -50 -4 -50 c -3 0 -16 4 -30 10 c -23 8 -26 15 -26 59 l 0 49 l -87 29 c -122 41 -122 47 3 186 c 82 91 101 108 123 105 l 26 -3 l 3 -138 z"/>
<path d="M 253 453 l -51 -60 l 51 -16 c 28 -9 52 -15 54 -13 c 2 2 3 36 1 76 l -3 72 l -52 -59 z"/>
</g>
</svg>
