<?xml version="1.0" encoding="UTF-8"?>
<svg xmlns="http://www.w3.org/2000/svg" xmlns:xlink="http://www.w3.org/1999/xlink" width="36px" height="36px" viewBox="0 0 36 36" version="1.1">
<g id="surface1">
<path style=" stroke:none;fill-rule:nonzero;fill:rgb(82 54 203);fill-opacity:1;" d="M 14.5 1.886719 L 11.765625 2.859375 L 19.558594 6.292969 L 27.324219 9.730469 L 30.292969 8.453125 C 31.910156 7.753906 33.207031 7.023438 33.148438 6.839844 C 33 6.414062 19.882812 1.277344 18.382812 1.0625 C 17.5 0.941406 16.5 1.15625 14.5 1.886719 Z M 14.5 1.886719 "/>
<path style=" stroke:none;fill-rule:nonzero;fill:rgb(82 54 203);fill-opacity:1;" d="M 5.351562 5.472656 C 2.648438 6.597656 2.148438 6.902344 2.382812 7.085938 C 2.675781 7.359375 17.53125 13.773438 17.824219 13.773438 C 18.292969 13.773438 23.53125 11.460938 23.53125 11.21875 C 23.53125 11.066406 9.117188 4.589844 8.265625 4.347656 C 8.175781 4.347656 6.851562 4.835938 5.351562 5.472656 Z M 5.351562 5.472656 "/>
<path style=" stroke:none;fill-rule:nonzero;fill:rgb(82 54 203);fill-opacity:1;" d="M 26.910156 12.953125 L 19.265625 16.328125 L 19.175781 25.511719 C 19.148438 31.652344 19.207031 34.664062 19.410156 34.664062 C 19.851562 34.664062 32.5 29.585938 33.234375 29.128906 C 34.617188 28.214844 34.707031 27.394531 34.648438 18.183594 L 34.558594 9.546875 Z M 33.824219 16.175781 C 33.824219 16.386719 33.589844 18.0625 33.324219 19.855469 C 32.941406 22.378906 32.707031 23.230469 32.292969 23.441406 C 31.824219 23.6875 31.675781 23.535156 31.207031 22.4375 C 30.882812 21.710938 30.324219 20.371094 29.910156 19.429688 C 29.5 18.488281 29.234375 17.605469 29.324219 17.511719 C 29.824219 16.996094 30.292969 17.511719 31.03125 19.308594 C 31.46875 20.371094 31.941406 21.191406 32.058594 21.132812 C 32.175781 21.039062 32.382812 20.066406 32.5 18.941406 C 32.617188 17.789062 32.824219 16.632812 32.96875 16.328125 C 33.292969 15.71875 33.824219 15.628906 33.824219 16.175781 Z M 28.53125 18.335938 C 28.53125 18.578125 27.96875 18.972656 27.324219 19.246094 C 26.410156 19.613281 26.148438 19.855469 26.292969 20.21875 C 26.382812 20.492188 26.46875 20.917969 26.46875 21.164062 C 26.46875 21.464844 26.648438 21.496094 27.234375 21.285156 C 28.234375 20.886719 28.53125 20.886719 28.53125 21.40625 C 28.53125 21.648438 28.058594 22.011719 27.46875 22.195312 C 26.734375 22.4375 26.46875 22.683594 26.589844 23.015625 C 26.675781 23.261719 26.765625 23.714844 26.765625 24.050781 C 26.765625 24.597656 26.824219 24.597656 27.824219 24.171875 C 29.148438 23.59375 29.410156 23.59375 29.410156 24.140625 C 29.410156 24.566406 26.234375 26.027344 25.96875 25.722656 C 25.824219 25.601562 25.410156 22.4375 25.234375 20.25 C 25.148438 19.125 25.207031 19.0625 26.46875 18.515625 C 28.089844 17.847656 28.53125 17.816406 28.53125 18.335938 Z M 23.792969 21.164062 C 24.648438 22.289062 24.648438 24.839844 23.792969 25.964844 C 23.148438 26.816406 21.792969 27.667969 21.089844 27.667969 C 20.792969 27.667969 20.617188 27.121094 20.46875 25.753906 C 20.351562 24.71875 20.207031 23.230469 20.089844 22.4375 C 19.941406 21.101562 20 20.949219 20.617188 20.707031 C 21.96875 20.128906 23.148438 20.3125 23.792969 21.164062 Z M 23.792969 21.164062 "/>
<path style=" stroke:none;fill-rule:nonzero;fill:rgb(82 54 203);fill-opacity:1;" d="M 21.324219 21.585938 C 21.089844 21.984375 21.5 26.453125 21.765625 26.453125 C 21.882812 26.453125 22.292969 26.210938 22.675781 25.90625 C 23.882812 24.871094 23.410156 21.285156 22.058594 21.285156 C 21.765625 21.285156 21.410156 21.40625 21.324219 21.585938 Z M 21.324219 21.585938 "/>
<path style=" stroke:none;fill-rule:nonzero;fill:rgb(82 54 203);fill-opacity:1;" d="M 1.175781 18.667969 L 1.175781 27.667969 L 1.96875 28.550781 C 2.589844 29.21875 4.46875 30.101562 9.382812 32.046875 C 13 33.476562 16.058594 34.664062 16.207031 34.664062 C 16.351562 34.664062 16.46875 30.527344 16.46875 25.449219 L 16.441406 16.265625 L 9.324219 13.164062 C 5.410156 11.460938 1.96875 9.972656 1.707031 9.851562 C 1.207031 9.667969 1.175781 10.214844 1.175781 18.667969 Z M 11.117188 21.375 C 11.207031 25.511719 11.207031 25.570312 11.910156 25.84375 C 12.441406 26.058594 12.648438 26.363281 12.648438 26.9375 C 12.648438 27.667969 12.558594 27.730469 11.765625 27.546875 L 10.882812 27.363281 L 10.882812 28.886719 C 10.882812 29.738281 10.824219 30.40625 10.765625 30.40625 C 10.675781 30.40625 10.292969 30.285156 9.882812 30.101562 C 9.207031 29.859375 9.117188 29.644531 9.117188 28.308594 L 9.117188 26.816406 L 6.558594 25.9375 C 2.96875 24.6875 2.96875 24.507812 6.648438 20.28125 C 9.058594 17.511719 9.617188 16.996094 10.265625 17.085938 L 11.03125 17.179688 Z M 11.117188 21.375 "/>
<path style=" stroke:none;fill-rule:nonzero;fill:rgb(82 54 203);fill-opacity:1;" d="M 7.441406 22.105469 L 5.941406 23.929688 L 7.441406 24.414062 C 8.265625 24.6875 8.96875 24.871094 9.03125 24.8125 C 9.089844 24.75 9.117188 23.714844 9.058594 22.5 L 8.96875 20.3125 Z M 7.441406 22.105469 "/>
</g>
</svg>
